{
  "accessors": [
    {
      "bufferView": 2,
      "componentType": 5126,
      "count": 43811,
      "max": [
        3.4700899124145508,
        34.820701599121094,
        3.1584799289703369
      ],
      "min": [
        -5.991300106048584,
        0.70502197742462158,
        -1.7049800157546997
      ],
      "type": "VEC3"
    },
    {
      "bufferView": 2,
      "byteOffset": 525732,
      "componentType": 5126,
      "count": 43811,
      "max": [
        1,
        0.99972009658813477,
        0.99999994039535522
      ],
      "min": [
        -0.99987763166427612,
        -1,
        -1
      ],
      "type": "VEC3"
    },
    {
      "bufferView": 1,
      "componentType": 5126,
      "count": 43811,
      "max": [
        0.99140101671218872,
        0.99191999435424805
      ],
      "min": [
        0.0080730002373456955,
        0.0083170002326369286
      ],
      "type": "VEC2"
    },
    {
      "bufferView": 0,
      "componentType": 5125,
      "count": 234660,
      "max": [
        43810
      ],
      "min": [
        0
      ],
      "type": "SCALAR"
    },
    {
      "bufferView": 2,
      "byteOffset": 1051464,
      "componentType": 5126,
      "count": 47534,
      "max": [
        3.7492098808288574,
        34.834701538085938,
        3.1586399078369141
      ],
      "min": [
        -5.9443302154541016,
        0.51336801052093506,
        -1.6978499889373779
      ],
      "type": "VEC3"
    },
    {
      "bufferView": 2,
      "byteOffset": 1621872,
      "componentType": 5126,
      "count": 47534,
      "max": [
        1,
        0.94532674551010132,
        1
      ],
      "min": [
        -0.99367910623550415,
        -0.99999988079071045,
        -0.99998748302459717
      ],
      "type": "VEC3"
    },
    {
      "bufferView": 1,
      "byteOffset": 350488,
      "componentType": 5126,
      "count": 47534,
      "max": [
        0.99164497852325439,
        0.99186998605728149
      ],
      "min": [
        0.0080709997564554214,
        0.0084589999169111252
      ],
      "type": "VEC2"
    },
    {
      "bufferView": 0,
      "byteOffset": 938640,
      "componentType": 5125,
      "count": 253779,
      "max": [
        47533
      ],
      "min": [
        0
      ],
      "type": "SCALAR"
    },
    {
      "bufferView": 2,
      "byteOffset": 2192280,
      "componentType": 5126,
      "count": 44615,
      "max": [
        3.784250020980835,
        34.622200012207031,
        3.1587998867034912
      ],
      "min": [
        -5.9852399826049805,
        0.58443301916122437,
        -1.6597199440002441
      ],
      "type": "VEC3"
    },
    {
      "bufferView": 2,
      "byteOffset": 2727660,
      "componentType": 5126,
      "count": 44615,
      "max": [
        1,
        1,
        0.9999995231628418
      ],
      "min": [
        -0.99956649541854858,
        -1,
        -0.99999994039535522
      ],
      "type": "VEC3"
    },
    {
      "bufferView": 1,
      "byteOffset": 730760,
      "componentType": 5126,
      "count": 44615,
      "max": [
        0.9914739727973938,
        0.99193298816680908
      ],
      "min": [
        0.0081070000305771828,
        0.0080779995769262314
      ],
      "type": "VEC2"
    },
    {
      "bufferView": 0,
      "byteOffset": 1953756,
      "componentType": 5125,
      "count": 227961,
      "max": [
        44614
      ],
      "min": [
        0
      ],
      "type": "SCALAR"
    },
    {
      "bufferView": 2,
      "byteOffset": 3263040,
      "componentType": 5126,
      "count": 12792,
      "max": [
        3.7971899509429932,
        34.648601531982422,
        3.1591799259185791
      ],
      "min": [
        -5.9466400146484375,
        0.57286900281906128,
        -1.6398400068283081
      ],
      "type": "VEC3"
    },
    {
      "bufferView": 2,
      "byteOffset": 3416544,
      "componentType": 5126,
      "count": 12792,
      "max": [
        1,
        1,
        1
      ],
      "min": [
        -0.99999994039535522,
        -1,
        -1
      ],
      "type": "VEC3"
    },
    {
      "bufferView": 1,
      "byteOffset": 1087680,
      "componentType": 5126,
      "count": 12792,
      "max": [
        0.99109601974487305,
        0.99160999059677124
      ],
      "min": [
        0.0083010001108050346,
        0.0091970004141330719
      ],
      "type": "VEC2"
    },
    {
      "bufferView": 0,
      "byteOffset": 2865600,
      "componentType": 5125,
      "count": 52116,
      "max": [
        12791
      ],
      "min": [
        0
      ],
      "type": "SCALAR"
    },
    {
      "bufferView": 2,
      "byteOffset": 3570048,
      "componentType": 5126,
      "count": 532,
      "max": [
        3.6571400165557861,
        34.613700866699219,
        3.1584799289703369
      ],
      "min": [
        -4.5233697891235352,
        2.0750799179077148,
        -1.6565799713134766
      ],
      "type": "VEC3"
    },
    {
      "bufferView": 2,
      "byteOffset": 3576432,
      "componentType": 5126,
      "count": 532,
      "max": [
        1,
        0.99999994039535522,
        0.99791610240936279
      ],
      "min": [
        -0.96747481822967529,
        -1,
        -1
      ],
      "type": "VEC3"
    },
    {
      "bufferView": 1,
      "byteOffset": 1190016,
      "componentType": 5126,
      "count": 532,
      "max": [
        0.98360002040863037,
        0.98794400691986084
      ],
      "min": [
        0.0119420001283288,
        0.015811000019311905
      ],
      "type": "VEC2"
    },
    {
      "bufferView": 0,
      "byteOffset": 3074064,
      "componentType": 5125,
      "count": 708,
      "max": [
        531
      ],
      "min": [
        0
      ],
      "type": "SCALAR"
    },
    {
      "bufferView": 2,
      "byteOffset": 3582816,
      "componentType": 5126,
      "count": 339,
      "max": [
        3.6536800861358643,
        29.870700836181641,
        3.1587998867034912
      ],
      "min": [
        -5.8595199584960938,
        2.0053300857543945,
        -1.6217000484466553
      ],
      "type": "VEC3"
    },
    {
      "bufferView": 2,
      "byteOffset": 3586884,
      "componentType": 5126,
      "count": 339,
      "max": [
        1,
        0.99999994039535522,
        1
      ],
      "min": [
        -0.98056542873382568,
        -0.80697160959243774,
        -0.99984633922576904
      ],
      "type": "VEC3"
    },
    {
      "bufferView": 1,
      "byteOffset": 1194272,
      "componentType": 5126,
      "count": 339,
      "max": [
        0.98172801733016968,
        0.9882659912109375
      ],
      "min": [
        0.011764000169932842,
        0.42273199558258057
      ],
      "type": "VEC2"
    },
    {
      "bufferView": 0,
      "byteOffset": 3076896,
      "componentType": 5125,
      "count": 408,
      "max": [
        338
      ],
      "min": [
        0
      ],
      "type": "SCALAR"
    }
  ],
  "asset": {
    "extras": {
      "author": "alexdelker (https://sketchfab.com/alexdelker)",
      "license": "CC-BY-NC-SA-4.0 (http://creativecommons.org/licenses/by-nc-sa/4.0/)",
      "source": "https://sketchfab.com/3d-models/day-41-murals-luke-chueh-felipe-pantone-c1c1b37439f149308409273c36a1245e",
      "title": "Day 41: Murals - Luke Chueh & Felipe Pantone"
    },
    "generator": "Sketchfab-10.17.0",
    "version": "2.0"
  },
  "bufferViews": [
    {
      "buffer": 0,
      "byteLength": 3078528,
      "byteOffset": 0,
      "name": "floatBufferViews",
      "target": 34963
    },
    {
      "buffer": 0,
      "byteLength": 1196984,
      "byteOffset": 3078528,
      "byteStride": 8,
      "name": "floatBufferViews",
      "target": 34962
    },
    {
      "buffer": 0,
      "byteLength": 3590952,
      "byteOffset": 4275512,
      "byteStride": 12,
      "name": "floatBufferViews",
      "target": 34962
    }
  ],
  "buffers": [
    {
      "byteLength": 7866464,
      "uri": "scene.bin"
    }
  ],
  "extensionsUsed": [
    "KHR_materials_unlit"
  ],
  "images": [
    {
      "uri": "textures/cropped_textured_mesh_0_baseColor.jpeg"
    },
    {
      "uri": "textures/cropped_textured_mesh_1_baseColor.jpeg"
    },
    {
      "uri": "textures/cropped_textured_mesh_2_baseColor.jpeg"
    },
    {
      "uri": "textures/cropped_textured_mesh_3_baseColor.jpeg"
    },
    {
      "uri": "textures/cropped_textured_mesh_4_baseColor.jpeg"
    },
    {
      "uri": "textures/cropped_textured_mesh_5_baseColor.jpeg"
    }
  ],
  "materials": [
    {
      "doubleSided": true,
      "emissiveFactor": [
        0,
        0,
        0
      ],
      "extensions": {
        "KHR_materials_unlit": {}
      },
      "name": "cropped_textured_mesh_0",
      "pbrMetallicRoughness": {
        "baseColorFactor": [
          1,
          1,
          1,
          1
        ],
        "baseColorTexture": {
          "index": 0,
          "texCoord": 0
        },
        "metallicFactor": 0,
        "roughnessFactor": 1
      }
    },
    {
      "doubleSided": true,
      "emissiveFactor": [
        0,
        0,
        0
      ],
      "extensions": {
        "KHR_materials_unlit": {}
      },
      "name": "cropped_textured_mesh_1",
      "pbrMetallicRoughness": {
        "baseColorFactor": [
          1,
          1,
          1,
          1
        ],
        "baseColorTexture": {
          "index": 1,
          "texCoord": 0
        },
        "metallicFactor": 0,
        "roughnessFactor": 1
      }
    },
    {
      "doubleSided": true,
      "emissiveFactor": [
        0,
        0,
        0
      ],
      "extensions": {
        "KHR_materials_unlit": {}
      },
      "name": "cropped_textured_mesh_2",
      "pbrMetallicRoughness": {
        "baseColorFactor": [
          1,
          1,
          1,
          1
        ],
        "baseColorTexture": {
          "index": 2,
          "texCoord": 0
        },
        "metallicFactor": 0,
        "roughnessFactor": 1
      }
    },
    {
      "doubleSided": true,
      "emissiveFactor": [
        0,
        0,
        0
      ],
      "extensions": {
        "KHR_materials_unlit": {}
      },
      "name": "cropped_textured_mesh_3",
      "pbrMetallicRoughness": {
        "baseColorFactor": [
          1,
          1,
          1,
          1
        ],
        "baseColorTexture": {
          "index": 3,
          "texCoord": 0
        },
        "metallicFactor": 0,
        "roughnessFactor": 1
      }
    },
    {
      "doubleSided": true,
      "emissiveFactor": [
        0,
        0,
        0
      ],
      "extensions": {
        "KHR_materials_unlit": {}
      },
      "name": "cropped_textured_mesh_4",
      "pbrMetallicRoughness": {
        "baseColorFactor": [
          1,
          1,
          1,
          1
        ],
        "baseColorTexture": {
          "index": 4,
          "texCoord": 0
        },
        "metallicFactor": 0,
        "roughnessFactor": 1
      }
    },
    {
      "doubleSided": true,
      "emissiveFactor": [
        0,
        0,
        0
      ],
      "extensions": {
        "KHR_materials_unlit": {}
      },
      "name": "cropped_textured_mesh_5",
      "pbrMetallicRoughness": {
        "baseColorFactor": [
          1,
          1,
          1,
          1
        ],
        "baseColorTexture": {
          "index": 5,
          "texCoord": 0
        },
        "metallicFactor": 0,
        "roughnessFactor": 1
      }
    }
  ],
  "meshes": [
    {
      "primitives": [
        {
          "attributes": {
            "NORMAL": 1,
            "POSITION": 0,
            "TEXCOORD_0": 2
          },
          "indices": 3,
          "material": 0,
          "mode": 4
        }
      ]
    },
    {
      "primitives": [
        {
          "attributes": {
            "NORMAL": 5,
            "POSITION": 4,
            "TEXCOORD_0": 6
          },
          "indices": 7,
          "material": 1,
          "mode": 4
        }
      ]
    },
    {
      "primitives": [
        {
          "attributes": {
            "NORMAL": 9,
            "POSITION": 8,
            "TEXCOORD_0": 10
          },
          "indices": 11,
          "material": 2,
          "mode": 4
        }
      ]
    },
    {
      "primitives": [
        {
          "attributes": {
            "NORMAL": 13,
            "POSITION": 12,
            "TEXCOORD_0": 14
          },
          "indices": 15,
          "material": 3,
          "mode": 4
        }
      ]
    },
    {
      "primitives": [
        {
          "attributes": {
            "NORMAL": 17,
            "POSITION": 16,
            "TEXCOORD_0": 18
          },
          "indices": 19,
          "material": 4,
          "mode": 4
        }
      ]
    },
    {
      "primitives": [
        {
          "attributes": {
            "NORMAL": 21,
            "POSITION": 20,
            "TEXCOORD_0": 22
          },
          "indices": 23,
          "material": 5,
          "mode": 4
        }
      ]
    }
  ],
  "nodes": [
    {
      "children": [
        1
      ],
      "name": "RootNode (gltf orientation matrix)",
      "rotation": [
        -0.70710678118654746,
        -0,
        -0,
        0.70710678118654757
      ]
    },
    {
      "children": [
        2
      ],
      "name": "RootNode (model correction matrix)"
    },
    {
      "children": [
        3,
        4,
        5,
        6,
        7,
        8
      ],
      "name": "cropped_textured_mesh.obj.cleaner.materialmerger.gles"
    },
    {
      "mesh": 0,
      "name": ""
    },
    {
      "mesh": 1,
      "name": ""
    },
    {
      "mesh": 2,
      "name": ""
    },
    {
      "mesh": 3,
      "name": ""
    },
    {
      "mesh": 4,
      "name": ""
    },
    {
      "mesh": 5,
      "name": ""
    }
  ],
  "samplers": [
    {
      "magFilter": 9729,
      "minFilter": 9987,
      "wrapS": 10497,
      "wrapT": 10497
    }
  ],
  "scene": 0,
  "scenes": [
    {
      "name": "OSG_Scene",
      "nodes": [
        0
      ]
    }
  ],
  "textures": [
    {
      "sampler": 0,
      "source": 0
    },
    {
      "sampler": 0,
      "source": 1
    },
    {
      "sampler": 0,
      "source": 2
    },
    {
      "sampler": 0,
      "source": 3
    },
    {
      "sampler": 0,
      "source": 4
    },
    {
      "sampler": 0,
      "source": 5
    }
  ]
}

