{
  "accessors": [
    {
      "bufferView": 2,
      "componentType": 5126,
      "count": 2541,
      "max": [
        8.2245731353759766,
        6.8863968849182129,
        13.281810760498047
      ],
      "min": [
        -8.2245731353759766,
        0,
        6.4649276733398438
      ],
      "type": "VEC3"
    },
    {
      "bufferView": 2,
      "byteOffset": 30492,
      "componentType": 5126,
      "count": 2541,
      "max": [
        0.98850327730178833,
        0.99997776746749878,
        0.99828577041625977
      ],
      "min": [
        -0.98850345611572266,
        -0.99997389316558838,
        -0.99865913391113281
      ],
      "type": "VEC3"
    },
    {
      "bufferView": 1,
      "componentType": 5126,
      "count": 2541,
      "max": [
        -0.13938486576080322,
        0.95686566829681396
      ],
      "min": [
        -0.35694485902786255,
        0.79287368059158325
      ],
      "type": "VEC2"
    },
    {
      "bufferView": 1,
      "byteOffset": 20328,
      "componentType": 5126,
      "count": 2541,
      "max": [
        -0.13938486576080322,
        0.95686566829681396
      ],
      "min": [
        -0.35694485902786255,
        0.79287368059158325
      ],
      "type": "VEC2"
    },
    {
      "bufferView": 1,
      "byteOffset": 40656,
      "componentType": 5126,
      "count": 2541,
      "max": [
        -0.13938486576080322,
        0.95686566829681396
      ],
      "min": [
        -0.35694485902786255,
        0.79287368059158325
      ],
      "type": "VEC2"
    },
    {
      "bufferView": 1,
      "byteOffset": 60984,
      "componentType": 5126,
      "count": 2541,
      "max": [
        -0.13938486576080322,
        0.95686566829681396
      ],
      "min": [
        -0.35694485902786255,
        0.79287368059158325
      ],
      "type": "VEC2"
    },
    {
      "bufferView": 1,
      "byteOffset": 81312,
      "componentType": 5126,
      "count": 2541,
      "max": [
        -0.13938486576080322,
        0.95686566829681396
      ],
      "min": [
        -0.35694485902786255,
        0.79287368059158325
      ],
      "type": "VEC2"
    },
    {
      "bufferView": 1,
      "byteOffset": 101640,
      "componentType": 5126,
      "count": 2541,
      "max": [
        -0.13938486576080322,
        0.95686566829681396
      ],
      "min": [
        -0.35694485902786255,
        0.79287368059158325
      ],
      "type": "VEC2"
    },
    {
      "bufferView": 1,
      "byteOffset": 121968,
      "componentType": 5126,
      "count": 2541,
      "max": [
        -0.13938486576080322,
        0.95686566829681396
      ],
      "min": [
        -0.35694485902786255,
        0.79287368059158325
      ],
      "type": "VEC2"
    },
    {
      "bufferView": 1,
      "byteOffset": 142296,
      "componentType": 5126,
      "count": 2541,
      "max": [
        -0.13938486576080322,
        0.95686566829681396
      ],
      "min": [
        -0.35694485902786255,
        0.79287368059158325
      ],
      "type": "VEC2"
    },
    {
      "bufferView": 1,
      "byteOffset": 162624,
      "componentType": 5126,
      "count": 2541,
      "max": [
        -0.13938486576080322,
        0.95686566829681396
      ],
      "min": [
        -0.35694485902786255,
        0.79287368059158325
      ],
      "type": "VEC2"
    },
    {
      "bufferView": 0,
      "componentType": 5125,
      "count": 13557,
      "max": [
        2540
      ],
      "min": [
        0
      ],
      "type": "SCALAR"
    },
    {
      "bufferView": 2,
      "byteOffset": 60984,
      "componentType": 5126,
      "count": 26149,
      "max": [
        10.000641822814941,
        8.1785411834716797,
        13.289915084838867
      ],
      "min": [
        -10.000641822814941,
        0.80684375762939453,
        -13.289915084838867
      ],
      "type": "VEC3"
    },
    {
      "bufferView": 2,
      "byteOffset": 374772,
      "componentType": 5126,
      "count": 26149,
      "max": [
        1,
        1,
        1
      ],
      "min": [
        -1,
        -1,
        -1
      ],
      "type": "VEC3"
    },
    {
      "bufferView": 1,
      "byteOffset": 182952,
      "componentType": 5126,
      "count": 26149,
      "max": [
        0.98176002502441406,
        0.99018585681915283
      ],
      "min": [
        0.0037346361204981804,
        0.016161978244781494
      ],
      "type": "VEC2"
    },
    {
      "bufferView": 1,
      "byteOffset": 392144,
      "componentType": 5126,
      "count": 26149,
      "max": [
        0.98176002502441406,
        0.99018585681915283
      ],
      "min": [
        0.0037346361204981804,
        0.016161978244781494
      ],
      "type": "VEC2"
    },
    {
      "bufferView": 1,
      "byteOffset": 601336,
      "componentType": 5126,
      "count": 26149,
      "max": [
        0.98176002502441406,
        0.99018585681915283
      ],
      "min": [
        0.0037346361204981804,
        0.016161978244781494
      ],
      "type": "VEC2"
    },
    {
      "bufferView": 1,
      "byteOffset": 810528,
      "componentType": 5126,
      "count": 26149,
      "max": [
        0.98176002502441406,
        0.99018585681915283
      ],
      "min": [
        0.0037346361204981804,
        0.016161978244781494
      ],
      "type": "VEC2"
    },
    {
      "bufferView": 1,
      "byteOffset": 1019720,
      "componentType": 5126,
      "count": 26149,
      "max": [
        0.98176002502441406,
        0.99018585681915283
      ],
      "min": [
        0.0037346361204981804,
        0.016161978244781494
      ],
      "type": "VEC2"
    },
    {
      "bufferView": 1,
      "byteOffset": 1228912,
      "componentType": 5126,
      "count": 26149,
      "max": [
        0.98176002502441406,
        0.99018585681915283
      ],
      "min": [
        0.0037346361204981804,
        0.016161978244781494
      ],
      "type": "VEC2"
    },
    {
      "bufferView": 1,
      "byteOffset": 1438104,
      "componentType": 5126,
      "count": 26149,
      "max": [
        0.98176002502441406,
        0.99018585681915283
      ],
      "min": [
        0.0037346361204981804,
        0.016161978244781494
      ],
      "type": "VEC2"
    },
    {
      "bufferView": 1,
      "byteOffset": 1647296,
      "componentType": 5126,
      "count": 26149,
      "max": [
        0.98176002502441406,
        0.99018585681915283
      ],
      "min": [
        0.0037346361204981804,
        0.016161978244781494
      ],
      "type": "VEC2"
    },
    {
      "bufferView": 1,
      "byteOffset": 1856488,
      "componentType": 5126,
      "count": 26149,
      "max": [
        0.98176002502441406,
        0.99018585681915283
      ],
      "min": [
        0.0037346361204981804,
        0.016161978244781494
      ],
      "type": "VEC2"
    },
    {
      "bufferView": 0,
      "byteOffset": 54228,
      "componentType": 5125,
      "count": 136854,
      "max": [
        26148
      ],
      "min": [
        0
      ],
      "type": "SCALAR"
    },
    {
      "bufferView": 2,
      "byteOffset": 688560,
      "componentType": 5126,
      "count": 3964,
      "max": [
        8.0797567367553711,
        3.0665469169616699,
        1.7662899494171143
      ],
      "min": [
        -8.0864248275756836,
        -3.0165033340454102,
        -2.281217098236084
      ],
      "type": "VEC3"
    },
    {
      "bufferView": 2,
      "byteOffset": 736128,
      "componentType": 5126,
      "count": 3964,
      "max": [
        1,
        1,
        1
      ],
      "min": [
        -1,
        -0.99992823600769043,
        -1
      ],
      "type": "VEC3"
    },
    {
      "bufferView": 1,
      "byteOffset": 2065680,
      "componentType": 5126,
      "count": 3964,
      "max": [
        0.96321815252304077,
        0.99713897705078125
      ],
      "min": [
        0.0060055362991988659,
        0.68290144205093384
      ],
      "type": "VEC2"
    },
    {
      "bufferView": 1,
      "byteOffset": 2097392,
      "componentType": 5126,
      "count": 3964,
      "max": [
        0.96321815252304077,
        0.99713897705078125
      ],
      "min": [
        0.0060055362991988659,
        0.68290144205093384
      ],
      "type": "VEC2"
    },
    {
      "bufferView": 1,
      "byteOffset": 2129104,
      "componentType": 5126,
      "count": 3964,
      "max": [
        0.96321815252304077,
        0.99713897705078125
      ],
      "min": [
        0.0060055362991988659,
        0.68290144205093384
      ],
      "type": "VEC2"
    },
    {
      "bufferView": 1,
      "byteOffset": 2160816,
      "componentType": 5126,
      "count": 3964,
      "max": [
        0.96321815252304077,
        0.99713897705078125
      ],
      "min": [
        0.0060055362991988659,
        0.68290144205093384
      ],
      "type": "VEC2"
    },
    {
      "bufferView": 1,
      "byteOffset": 2192528,
      "componentType": 5126,
      "count": 3964,
      "max": [
        0.96321815252304077,
        0.99713897705078125
      ],
      "min": [
        0.0060055362991988659,
        0.68290144205093384
      ],
      "type": "VEC2"
    },
    {
      "bufferView": 1,
      "byteOffset": 2224240,
      "componentType": 5126,
      "count": 3964,
      "max": [
        0.96321815252304077,
        0.99713897705078125
      ],
      "min": [
        0.0060055362991988659,
        0.68290144205093384
      ],
      "type": "VEC2"
    },
    {
      "bufferView": 1,
      "byteOffset": 2255952,
      "componentType": 5126,
      "count": 3964,
      "max": [
        0.96321815252304077,
        0.99713897705078125
      ],
      "min": [
        0.0060055362991988659,
        0.68290144205093384
      ],
      "type": "VEC2"
    },
    {
      "bufferView": 1,
      "byteOffset": 2287664,
      "componentType": 5126,
      "count": 3964,
      "max": [
        0.96321815252304077,
        0.99713897705078125
      ],
      "min": [
        0.0060055362991988659,
        0.68290144205093384
      ],
      "type": "VEC2"
    },
    {
      "bufferView": 1,
      "byteOffset": 2319376,
      "componentType": 5126,
      "count": 3964,
      "max": [
        0.96321815252304077,
        0.99713897705078125
      ],
      "min": [
        0.0060055362991988659,
        0.68290144205093384
      ],
      "type": "VEC2"
    },
    {
      "bufferView": 0,
      "byteOffset": 601644,
      "componentType": 5125,
      "count": 12666,
      "max": [
        3963
      ],
      "min": [
        0
      ],
      "type": "SCALAR"
    }
  ],
  "asset": {
    "extras": {
      "author": "sscelfo (https://sketchfab.com/spencerscelfo)",
      "license": "CC-BY-4.0 (http://creativecommons.org/licenses/by/4.0/)",
      "source": "https://sketchfab.com/3d-models/hololens-98b40c6118634abab7d8500bbc2eb631",
      "title": "Hololens"
    },
    "generator": "Sketchfab-8.72.3",
    "version": "2.0"
  },
  "bufferViews": [
    {
      "buffer": 0,
      "byteLength": 652308,
      "byteOffset": 0,
      "name": "floatBufferViews",
      "target": 34963
    },
    {
      "buffer": 0,
      "byteLength": 2351088,
      "byteOffset": 652308,
      "byteStride": 8,
      "name": "floatBufferViews",
      "target": 34962
    },
    {
      "buffer": 0,
      "byteLength": 783696,
      "byteOffset": 3003396,
      "byteStride": 12,
      "name": "floatBufferViews",
      "target": 34962
    }
  ],
  "buffers": [
    {
      "byteLength": 3787092,
      "uri": "scene.bin"
    }
  ],
  "images": [
    {
      "uri": "textures/Material_323_baseColor.png"
    },
    {
      "uri": "textures/Material_324_baseColor.png"
    }
  ],
  "materials": [
    {
      "doubleSided": true,
      "emissiveFactor": [
        0,
        0,
        0
      ],
      "name": "Material_323",
      "pbrMetallicRoughness": {
        "baseColorFactor": [
          1,
          1,
          1,
          1
        ],
        "baseColorTexture": {
          "index": 0,
          "texCoord": 0
        },
        "metallicFactor": 0,
        "roughnessFactor": 0
      }
    },
    {
      "doubleSided": true,
      "emissiveFactor": [
        0,
        0,
        0
      ],
      "name": "Material_324",
      "pbrMetallicRoughness": {
        "baseColorFactor": [
          1,
          1,
          1,
          1
        ],
        "baseColorTexture": {
          "index": 1,
          "texCoord": 0
        },
        "metallicFactor": 0,
        "roughnessFactor": 0
      }
    },
    {
      "doubleSided": true,
      "emissiveFactor": [
        0,
        0,
        0
      ],
      "name": "Material_325",
      "pbrMetallicRoughness": {
        "baseColorFactor": [
          1,
          1,
          1,
          1
        ],
        "baseColorTexture": {
          "index": 1,
          "texCoord": 0
        },
        "metallicFactor": 0,
        "roughnessFactor": 0
      }
    }
  ],
  "meshes": [
    {
      "name": "node_id31_Material_323_0",
      "primitives": [
        {
          "attributes": {
            "NORMAL": 1,
            "POSITION": 0,
            "TEXCOORD_0": 2,
            "TEXCOORD_1": 3,
            "TEXCOORD_2": 4,
            "TEXCOORD_3": 5,
            "TEXCOORD_4": 6,
            "TEXCOORD_5": 7,
            "TEXCOORD_6": 8,
            "TEXCOORD_7": 9,
            "TEXCOORD_8": 10
          },
          "indices": 11,
          "material": 0,
          "mode": 4
        }
      ]
    },
    {
      "name": "node_id33_Material_324_0",
      "primitives": [
        {
          "attributes": {
            "NORMAL": 13,
            "POSITION": 12,
            "TEXCOORD_0": 14,
            "TEXCOORD_1": 15,
            "TEXCOORD_2": 16,
            "TEXCOORD_3": 17,
            "TEXCOORD_4": 18,
            "TEXCOORD_5": 19,
            "TEXCOORD_6": 20,
            "TEXCOORD_7": 21,
            "TEXCOORD_8": 22
          },
          "indices": 23,
          "material": 1,
          "mode": 4
        }
      ]
    },
    {
      "name": "node_id35_Material_325_0",
      "primitives": [
        {
          "attributes": {
            "NORMAL": 25,
            "POSITION": 24,
            "TEXCOORD_0": 26,
            "TEXCOORD_1": 27,
            "TEXCOORD_2": 28,
            "TEXCOORD_3": 29,
            "TEXCOORD_4": 30,
            "TEXCOORD_5": 31,
            "TEXCOORD_6": 32,
            "TEXCOORD_7": 33,
            "TEXCOORD_8": 34
          },
          "indices": 35,
          "material": 2,
          "mode": 4
        }
      ]
    }
  ],
  "nodes": [
    {
      "children": [
        1
      ],
      "name": "RootNode (gltf orientation matrix)",
      "rotation": [
        -0.70710678118654746,
        -0,
        -0,
        0.70710678118654757
      ]
    },
    {
      "children": [
        2
      ],
      "name": "RootNode (model correction matrix)"
    },
    {
      "children": [
        3
      ],
      "matrix": [
        1,
        0,
        0,
        0,
        0,
        0,
        1,
        0,
        0,
        -1,
        0,
        0,
        0,
        0,
        0,
        1
      ],
      "name": "86605d58024f436989b625137c715ab6.fbx"
    },
    {
      "children": [
        4
      ],
      "name": "RootNode"
    },
    {
      "children": [
        5
      ],
      "name": "root"
    },
    {
      "children": [
        6,
        8,
        10
      ],
      "matrix": [
        0.0010000000474974513,
        0,
        0,
        0,
        0,
        0.0010000000474974513,
        0,
        0,
        0,
        0,
        0.0010000000474974513,
        0,
        -0.005747996736317873,
        -0.21082136034965515,
        1.8310547034161573e-07,
        1
      ],
      "name": "node_id37"
    },
    {
      "children": [
        7
      ],
      "matrix": [
        25.598358154296875,
        0,
        0,
        0,
        0,
        25.59835815429685,
        1.1189397355337849e-06,
        0,
        0,
        -1.1189397355337849e-06,
        25.59835815429685,
        0,
        0,
        -104.67861938476562,
        340.20001220703125,
        1
      ],
      "name": "node_id31"
    },
    {
      "mesh": 0,
      "name": "node_id31_Material_323_0"
    },
    {
      "children": [
        9
      ],
      "matrix": [
        25.598358154296875,
        0,
        0,
        0,
        0,
        25.59835815429685,
        1.1189397355337849e-06,
        0,
        0,
        -1.1189397355337849e-06,
        25.59835815429685,
        0,
        0,
        -104.67861938476562,
        340.20001220703125,
        1
      ],
      "name": "node_id33"
    },
    {
      "mesh": 1,
      "name": "node_id33_Material_324_0"
    },
    {
      "children": [
        11
      ],
      "matrix": [
        25.598358154296875,
        0,
        0,
        0,
        -0,
        -1.9326225817002417e-06,
        -25.598356246948168,
        0,
        0,
        25.598356246948168,
        -1.9326225817002417e-06,
        0,
        -3.3376460351064452e-07,
        38.630634307861328,
        598.9090576171875,
        1
      ],
      "name": "node_id35"
    },
    {
      "mesh": 2,
      "name": "node_id35_Material_325_0"
    }
  ],
  "samplers": [
    {
      "magFilter": 9729,
      "minFilter": 9987,
      "wrapS": 10497,
      "wrapT": 10497
    }
  ],
  "scene": 0,
  "scenes": [
    {
      "name": "OSG_Scene",
      "nodes": [
        0
      ]
    }
  ],
  "textures": [
    {
      "sampler": 0,
      "source": 0
    },
    {
      "sampler": 0,
      "source": 1
    }
  ]
}

